<svg xmlns="http://www.w3.org/2000/svg" width="40" height="40" viewBox="0 0 40 40">
  <g id="ic_frontoffice" transform="translate(-76 -311)">
    <g id="ic_frontoffice-2" data-name="ic_frontoffice" transform="translate(452 579.5)">
      <g id="Rectangle_161" data-name="Rectangle 161" transform="translate(-372 -244.5)" fill="none" stroke="#fff" stroke-width="1.5">
        <rect width="32" height="16" stroke="none"/>
        <rect x="0.75" y="0.75" width="30.5" height="14.5" fill="none"/>
      </g>
      <g id="Rectangle_159" data-name="Rectangle 159" transform="translate(-374 -265)" fill="none" stroke="#fff" stroke-width="1.5">
        <rect width="16" height="12" rx="1" stroke="none"/>
        <rect x="0.75" y="0.75" width="14.5" height="10.5" rx="0.25" fill="none"/>
      </g>
      <g id="Group_213" data-name="Group 213" transform="translate(0 -0.5)">
        <g id="Ellipse_46" data-name="Ellipse 46" transform="translate(-351 -267)" fill="none" stroke="#fff" stroke-width="1.5">
          <circle cx="5" cy="5" r="5" stroke="none"/>
          <circle cx="5" cy="5" r="4.25" fill="none"/>
        </g>
        <g id="Path_369" data-name="Path 369" transform="translate(-354 -258)" fill="none">
          <path d="M8,0a8,8,0,0,1,8,8v2H0S0,8.743,0,8A8,8,0,0,1,8,0Z" stroke="none"/>
          <path d="M 8 1.5 C 4.415889739990234 1.5 1.5 4.415890216827393 1.5 8 L 1.5 8.5 L 14.5 8.5 L 14.5 8 C 14.5 4.415890216827393 11.58411026000977 1.5 8 1.5 M 8 0 C 12.41827964782715 0 16 3.581719875335693 16 8 C 16 9.520529747009277 16 10 16 10 L 0 10 C 0 10 0 8.743350028991699 0 8 C 0 3.581719875335693 3.581720352172852 0 8 0 Z" stroke="none" fill="#fff"/>
        </g>
      </g>
      <g id="Rectangle_160" data-name="Rectangle 160" transform="translate(-376 -250)" fill="none" stroke="#fff" stroke-width="1.5">
        <rect width="40" height="7" rx="3.5" stroke="none"/>
        <rect x="0.75" y="0.75" width="38.5" height="5.5" rx="2.75" fill="none"/>
      </g>
      <line id="Line_129" data-name="Line 129" y2="5" transform="translate(-366 -253.5)" fill="none" stroke="#fff" stroke-width="1.5"/>
    </g>
    <rect id="Rectangle_188" data-name="Rectangle 188" width="40" height="40" transform="translate(76 311)" fill="none"/>
  </g>
</svg>
