<svg xmlns="http://www.w3.org/2000/svg" width="40" height="40" viewBox="0 0 40 40">
  <g id="ic_housekeeping" transform="translate(-244 -310)">
    <path id="Path_370" data-name="Path 370" d="M119.838,38.76V37.482A2.482,2.482,0,0,1,122.319,35h0a2.482,2.482,0,0,1,2.482,2.482V51.759h5.586a1.862,1.862,0,0,1,1.862,1.862v1.241a1.862,1.862,0,0,1-1.478,1.822l1.143,9.6a3.1,3.1,0,0,1-3.082,3.47h-13.03q-.108,0-.216-.007a.618.618,0,0,1-.1.007H102.217a3.1,3.1,0,0,1-3.087-2.787L96.885,45.09c-.03-.027-.06-.055-.088-.083a1.861,1.861,0,0,1,0-2.633c.025-.025.05-.05.076-.073A7.449,7.449,0,0,1,104.32,35h8.662a8.124,8.124,0,0,1,6.855,3.76Zm9.691,17.965H115.113l-1.156,9.71a1.862,1.862,0,0,0,1.849,2.082h.929v-3.1a.621.621,0,1,1,1.241,0v3.1H121.7v-3.1a.621.621,0,0,1,1.241,0v3.1h3.724v-3.1a.621.621,0,1,1,1.241,0v3.1h.929a1.863,1.863,0,0,0,1.849-2.082ZM98.181,45.552l2.183,21.294a1.862,1.862,0,0,0,1.853,1.672h11.106a3.106,3.106,0,0,1-.6-2.229l1.143-9.6a1.863,1.863,0,0,1-1.478-1.822V53.621a1.862,1.862,0,0,1,1.862-1.862h5.586V45.552Zm2.418,6.884.621,6.828a.621.621,0,1,0,1.236-.113l-.621-6.828a.621.621,0,1,0-1.236.113Zm29.79.564H114.251a.621.621,0,0,0-.621.621v1.241a.621.621,0,0,0,.621.621h16.138a.621.621,0,0,0,.621-.621V53.621A.621.621,0,0,0,130.389,53Zm-6.828-1.241V49.9h-2.483v1.862Zm-2.483-14.277V48.655h2.483V37.481a1.241,1.241,0,0,0-1.24-1.24h0a1.241,1.241,0,0,0-1.24,1.24Zm-1.241,5.587H98.113a.621.621,0,1,0,0,1.241h21.724Zm-.093-1.241a6.886,6.886,0,0,0-6.762-5.586h-8.662a6.208,6.208,0,0,0-6.176,5.586Z" transform="translate(149.749 278)" fill="#fff" stroke="#fff" stroke-width="0.2" fill-rule="evenodd"/>
    <rect id="Rectangle_189" data-name="Rectangle 189" width="40" height="40" transform="translate(244 310)" fill="none" opacity="0.5"/>
  </g>
</svg>
