<svg xmlns="http://www.w3.org/2000/svg" width="40" height="40" viewBox="0 0 40 40">
  <g id="ic_MIS" transform="translate(-161 -418)">
    <g id="Group_215" data-name="Group 215" transform="translate(2052.5 419)">
      <path id="Path_62" data-name="Path 62" d="M-1881.167,9.5a6.34,6.34,0,0,0-6.333,6.333,6.34,6.34,0,0,0,6.333,6.333,6.34,6.34,0,0,0,6.333-6.333h-6.333Z" transform="translate(2.429 4.048)" fill="none" stroke="#fff" stroke-linecap="round" stroke-linejoin="round" stroke-width="1.5"/>
      <path id="Path_63" data-name="Path 63" d="M-1875.667,13.833A6.34,6.34,0,0,0-1882,7.5v6.333Z" transform="translate(6.881 2.429)" fill="none" stroke="#fff" stroke-linecap="round" stroke-linejoin="round" stroke-width="1.5"/>
      <path id="Path_64" data-name="Path 64" d="M-1856.119,31.643h-30.762a3.63,3.63,0,0,1-3.619-3.619V8.119a3.63,3.63,0,0,1,3.619-3.619h30.762a3.63,3.63,0,0,1,3.619,3.619v19.9A3.63,3.63,0,0,1-1856.119,31.643Z" transform="translate(0 0)" fill="none" stroke="#fff" stroke-linecap="round" stroke-linejoin="round" stroke-width="1.5"/>
      <line id="Line_36" data-name="Line 36" x1="4" transform="translate(-1862.5 14)" fill="none" stroke="#fff" stroke-linecap="round" stroke-linejoin="round" stroke-width="1.5"/>
      <line id="Line_37" data-name="Line 37" x1="4" transform="translate(-1862.5 18)" fill="none" stroke="#fff" stroke-linecap="round" stroke-linejoin="round" stroke-width="1.5"/>
      <line id="Line_38" data-name="Line 38" x1="2" transform="translate(-1862.5 22)" fill="none" stroke="#fff" stroke-linecap="round" stroke-linejoin="round" stroke-width="1.5"/>
      <line id="Line_39" data-name="Line 39" y2="5.429" transform="translate(-1871.5 31.643)" fill="none" stroke="#fff" stroke-linecap="round" stroke-linejoin="round" stroke-width="1.5"/>
      <line id="Line_40" data-name="Line 40" x1="16.467" transform="translate(-1879.733 37.071)" fill="none" stroke="#fff" stroke-linecap="round" stroke-linejoin="round" stroke-width="1.5"/>
    </g>
    <rect id="Rectangle_190" data-name="Rectangle 190" width="40" height="40" transform="translate(161 418)" fill="none" opacity="0.5"/>
  </g>
</svg>
