<svg xmlns="http://www.w3.org/2000/svg" width="24" height="24" viewBox="0 0 24 24">
  <g id="ic_roomstatus" transform="translate(74 -356)">
    <rect id="Rectangle_19" data-name="Rectangle 19" width="24" height="24" transform="translate(-74 356)" fill="none"/>
    <g id="Ring_Chart5" data-name="Ring Chart5">
      <path id="Path_74" data-name="Path 74" d="M1.367-9.057a1.5,1.5,0,0,1,.614-1.21,1.5,1.5,0,0,1,1.339-.22A11,11,0,0,1,7.471-8.074,1.5,1.5,0,0,1,7.942-6.8a1.5,1.5,0,0,1-.748,1.132h0a1.5,1.5,0,0,1-1.761-.2A8,8,0,0,0,2.414-7.627,1.5,1.5,0,0,1,1.367-9.057Z" transform="translate(-62 368)" fill="none" stroke="#028cf3" stroke-width="1.5"/>
      <path id="Path_75" data-name="Path 75" d="M8.547-3.293A1.5,1.5,0,0,1,9.9-3.359,1.5,1.5,0,0,1,10.756-2.3,11,11,0,0,1,5.175,9.706a1.5,1.5,0,0,1-2.181-1.05h0a1.5,1.5,0,0,1,.769-1.6A8,8,0,0,0,7.823-1.676a1.5,1.5,0,0,1,.725-1.618Z" transform="translate(-62 368)" fill="none" stroke="#028cf3" stroke-width="1.5"/>
      <path id="Path_76" data-name="Path 76" d="M.307,9.155a1.5,1.5,0,0,1-.383,1.3,1.5,1.5,0,0,1-1.276.46,11,11,0,0,1-9.6-9.91A11,11,0,0,1-3.32-10.487a1.5,1.5,0,0,1,1.339.22,1.5,1.5,0,0,1,.614,1.21h0a1.5,1.5,0,0,1-1.047,1.43A8,8,0,0,0-7.966.732,8,8,0,0,0-.984,7.939,1.5,1.5,0,0,1,.307,9.155Z" transform="translate(-62 368)" fill="none" stroke="#028cf3" stroke-width="1.5"/>
    </g>
  </g>
</svg>
