<svg xmlns="http://www.w3.org/2000/svg" width="24" height="24" viewBox="0 0 24 24">
  <g id="ic_acrestaurant" transform="translate(-30 -215)">
    <rect id="Rectangle_19" data-name="Rectangle 19" width="24" height="24" transform="translate(30 215)" fill="none"/>
    <path id="Union_2" data-name="Union 2" d="M9.531,20.513v-8.8a6.5,6.5,0,0,1-1.122-1.64c-.814-2.3.42-5.472.477-5.612a10.6,10.6,0,0,1,1.346-2.778l.057-.085C10.709,1.01,11.355.28,12.029.5c.629.227.717,1.2.728,1.76a.4.4,0,0,1,.03.149V20.485A1.654,1.654,0,0,1,11.13,22,1.542,1.542,0,0,1,9.531,20.513Zm.842-8.98v8.952a.8.8,0,0,0,1.571,0V2.413a.384.384,0,0,1,0-.04,2.09,2.09,0,0,0-.17-1.083,3.2,3.2,0,0,0-.758.814l-.112.085A10.3,10.3,0,0,0,9.671,4.77c0,.028-1.151,3.03-.449,5.051a5.681,5.681,0,0,0,.928,1.345A.43.43,0,0,1,10.373,11.533ZM1.9,20.4V9.305C.1,8.629-.122,7.292.046,6.65L.5,1.038a.409.409,0,0,1,.814.085L.86,6.791v.085C.833,6.987.635,8,2.235,8.587a.484.484,0,0,1,.063.029h.022a.431.431,0,0,1,.42.42V20.428a.75.75,0,0,0,.786.674.749.749,0,0,0,.786-.674V9.061a.406.406,0,0,1,.253-.531c1.628-.589,1.375-1.712,1.375-1.712V6.735l-.477-5.64a.409.409,0,0,1,.814-.085l.449,5.612A2.329,2.329,0,0,1,5.153,9.161V20.428A1.609,1.609,0,0,1,3.5,21.888,1.542,1.542,0,0,1,1.9,20.4ZM3.806,6.763V.421a.421.421,0,1,1,.842,0V6.763a.414.414,0,0,1-.421.421A.433.433,0,0,1,3.806,6.763Zm-1.768,0V.421a.421.421,0,1,1,.842,0V6.763a.4.4,0,0,1-.42.421A.432.432,0,0,1,2.039,6.763Z" transform="translate(36 216)" fill="#028cf3" stroke="#028cf3" stroke-width="0.4"/>
  </g>
</svg>
